<svg xmlns="http://www.w3.org/2000/svg" data-name="Layer 1" viewBox="0 0 24 30" x="0px" y="0px"><path d="M8.88,2.594A8.867,8.867,0,0,0,8.216,14.37L.293,22.293a1,1,0,1,0,1.414,1.414L9.63,15.784a8.855,8.855,0,1,0-.75-13.19ZM19.991,13.706a6.99,6.99,0,0,1-9.628.063c-.02-.025-.029-.056-.052-.08s-.055-.032-.08-.052a6.853,6.853,0,0,1,.063-9.629,6.93,6.93,0,0,1,9.7,0,6.856,6.856,0,0,1,0,9.7Z"/><text x="0" y="39" fill="#000000" font-size="5px" font-weight="bold" font-family="'Helvetica Neue', Helvetica, Arial-Unicode, Arial, Sans-serif">Created by Gicon studio</text><text x="0" y="44" fill="#000000" font-size="5px" font-weight="bold" font-family="'Helvetica Neue', Helvetica, Arial-Unicode, Arial, Sans-serif">from the Noun Project</text></svg>